<svg height="511pt" viewBox="1 -47 511.99998 511" width="511pt" xmlns="http://www.w3.org/2000/svg"><path d="m352 256.5h-192c-8.835938 0-16-7.164062-16-16s7.164062-16 16-16h192c8.835938 0 16 7.164062 16 16s-7.164062 16-16 16zm0 0"/><path d="m464 416.5h-416c-26.511719 0-48-21.492188-48-48v-320c0-26.511719 21.488281-48 48-48h137.601562c8.257813-.015625 16.203126 3.1875 22.140626 8.929688l54.65625 52.398437c.8125.8125 1.539062 1.707031 2.160156 2.671875h199.441406c26.511719 0 48 21.492188 48 48v256c0 26.507812-21.492188 48-48 48zm-416-384c-8.835938 0-16 7.164062-16 16v320c0 8.835938 7.164062 16 16 16h416c8.835938 0 16-7.164062 16-16v-256c0-8.835938-7.164062-16-16-16h-199.441406c-9.976563 0-19.386719-4.65625-25.4375-12.59375l-53.519532-51.40625zm0 0"/></svg>