<?xml version="1.0"?>
<svg xmlns="http://www.w3.org/2000/svg" xmlns:xlink="http://www.w3.org/1999/xlink" version="1.1" id="Capa_1" x="0px" y="0px" viewBox="0 0 512 512" style="enable-background:new 0 0 512 512;" xml:space="preserve" width="512px" height="512px"><g><g>
	<g>
		<path d="M139.08,124.93c-1.86-1.86-4.44-2.93-7.07-2.93s-5.21,1.07-7.07,2.93s-2.93,4.44-2.93,7.07s1.07,5.21,2.93,7.07    s4.44,2.93,7.07,2.93c2.64,0,5.21-1.07,7.07-2.93c1.87-1.86,2.93-4.44,2.93-7.07S140.95,126.79,139.08,124.93z" data-original="#000000" class="active-path" data-old_color="#000000" fill="#FFFFFF"/>
	</g>
</g><g>
	<g>
		<path d="M464,0H152.013c-16.542,0-30,13.458-30,30v62.5c0,5.523,4.477,10,10,10s10-4.477,10-10V30c0-5.514,4.486-10,10-10H464    c5.514,0,10,4.486,10,10v452c0,5.514-4.486,10-10,10H292.28c1.11-3.13,1.72-6.494,1.72-10V289.604    c0-17.663-8.76-34.08-23.432-43.914L256,235.925v-1.631c5.968-3.465,10-9.911,10-17.294v-36c0-11.028-8.972-20-20-20H66    c-11.028,0-20,8.972-20,20v36c0,7.383,4.032,13.829,10,17.294v1.631l-14.568,9.764C26.76,255.524,18,271.94,18,289.604V482    c0,16.542,13.458,30,30,30h124.012H264h200c16.542,0,30-13.458,30-30V30C494,13.458,480.542,0,464,0z M66,181h180v36H66V181z     M274,482c0,5.514-4.486,10-10,10h-91.987H48c-5.514,0-10-4.486-10-10V289.604c0-10.98,5.446-21.187,14.568-27.301l19-12.735    c2.77-1.856,4.432-4.972,4.432-8.307V237h160v4.261c0,3.335,1.662,6.45,4.432,8.307l19,12.735    c9.122,6.114,14.568,16.32,14.568,27.301V482z" data-original="#000000" class="active-path" data-old_color="#000000" fill="#FFFFFF"/>
	</g>
</g><g>
	<g>
		<path d="M381.493,40c-23.159,0-42,18.841-42,42s18.841,42,42,42s42-18.841,42-42S404.652,40,381.493,40z M381.493,104    c-12.131,0-22-9.869-22-22s9.869-22,22-22c12.131,0,22,9.869,22,22S393.624,104,381.493,104z" data-original="#000000" class="active-path" data-old_color="#000000" fill="#FFFFFF"/>
	</g>
</g><g>
	<g>
		<path d="M234.52,40c-23.159,0-42,18.841-42,42s18.841,42,42,42s42-18.841,42-42S257.679,40,234.52,40z M234.52,104    c-12.131,0-22-9.869-22-22s9.869-22,22-22s22,9.869,22,22S246.651,104,234.52,104z" data-original="#000000" class="active-path" data-old_color="#000000" fill="#FFFFFF"/>
	</g>
</g><g>
	<g>
		<path d="M381.493,155.939c-23.159,0-42,18.841-42,42s18.841,42,42,42s42-18.841,42-42S404.652,155.939,381.493,155.939z     M381.493,219.939c-12.131,0-22-9.869-22-22c0-12.131,9.869-22,22-22c12.131,0,22,9.869,22,22    C403.493,210.07,393.624,219.939,381.493,219.939z" data-original="#000000" class="active-path" data-old_color="#000000" fill="#FFFFFF"/>
	</g>
</g><g>
	<g>
		<path d="M381.493,271.878c-23.159,0-42,18.841-42,42s18.841,42,42,42s42-18.841,42-42S404.652,271.878,381.493,271.878z     M381.493,335.878c-12.131,0-22-9.869-22-22c0-12.131,9.869-22,22-22c12.131,0,22,9.869,22,22    C403.493,326.009,393.624,335.878,381.493,335.878z" data-original="#000000" class="active-path" data-old_color="#000000" fill="#FFFFFF"/>
	</g>
</g><g>
	<g>
		<path d="M381.493,387.817c-23.159,0-42,18.841-42,42s18.841,42,42,42s42-18.841,42-42S404.652,387.817,381.493,387.817z     M381.493,451.817c-12.131,0-22-9.869-22-22c0-12.131,9.869-22,22-22c12.131,0,22,9.869,22,22    C403.493,441.948,393.624,451.817,381.493,451.817z" data-original="#000000" class="active-path" data-old_color="#000000" fill="#FFFFFF"/>
	</g>
</g><g>
	<g>
		<path d="M196,331h-10v-10c0-16.542-13.458-30-30-30s-30,13.458-30,30v10h-10c-16.542,0-30,13.458-30,30s13.458,30,30,30h10v10    c0,16.542,13.458,30,30,30s30-13.458,30-30v-10h10c16.542,0,30-13.458,30-30S212.542,331,196,331z M196,371h-20    c-5.523,0-10,4.478-10,10v20c0,5.514-4.486,10-10,10c-5.514,0-10-4.486-10-10v-20c0-5.522-4.477-10-10-10h-20    c-5.514,0-10-4.486-10-10c0-5.514,4.486-10,10-10h20c5.523,0,10-4.478,10-10v-20c0-5.514,4.486-10,10-10c5.514,0,10,4.486,10,10    v20c0,5.522,4.477,10,10,10h20c5.514,0,10,4.486,10,10C206,366.514,201.515,371,196,371z" data-original="#000000" class="active-path" data-old_color="#000000" fill="#FFFFFF"/>
	</g>
</g><g>
	<g>
		<path d="M308.006,72c-5.523,0-10,4.477-10,10v127c0,5.523,4.477,10,10,10s10-4.477,10-10V82C318.006,76.477,313.529,72,308.006,72    z" data-original="#000000" class="active-path" data-old_color="#000000" fill="#FFFFFF"/>
	</g>
</g><g>
	<g>
		<path d="M315.08,238.93c-1.86-1.86-4.44-2.93-7.07-2.93c-2.64,0-5.21,1.07-7.07,2.93c-1.87,1.86-2.93,4.44-2.93,7.07    s1.06,5.21,2.93,7.07c1.86,1.86,4.43,2.93,7.07,2.93c2.63,0,5.2-1.07,7.07-2.93c1.86-1.86,2.93-4.44,2.93-7.07    S316.94,240.79,315.08,238.93z" data-original="#000000" class="active-path" data-old_color="#000000" fill="#FFFFFF"/>
	</g>
</g></g> </svg>
