<?xml version="1.0"?>
<svg xmlns="http://www.w3.org/2000/svg" xmlns:xlink="http://www.w3.org/1999/xlink" version="1.1" id="Capa_1" x="0px" y="0px" viewBox="0 0 512 512" style="enable-background:new 0 0 512 512;" xml:space="preserve" width="512px" height="512px"><g><g>
	<g>
		<path d="M392.855,256.628v15.011c0,75.462-61.393,136.855-136.855,136.855s-136.855-61.392-136.855-136.855    S180.537,134.783,256,134.783c16.403,0,32.676,2.956,47.912,8.639l-52.373,59.481l218.602,12.376L430.197,0L374.95,62.745    C338.814,42.121,297.958,31.276,256,31.276c-64.203,0-124.562,25.003-169.961,70.401c-45.4,45.398-70.401,105.758-70.401,169.961    S40.641,396.2,86.039,441.599C131.437,486.998,191.797,512,256,512s124.562-25.002,169.961-70.4    c45.4-45.398,70.401-105.758,70.401-169.961v-15.011H392.855z M256,481.978c-115.982,0-210.34-94.358-210.34-210.34    S140.018,61.298,256,61.298c40.53,0,79.873,11.555,113.774,33.415l10.861,7.003l31.303-35.551l21.705,116.977l-118.782-6.725    l37.343-42.41l-16.495-8.997c-24.292-13.248-51.855-20.25-79.709-20.25c-92.016,0-166.878,74.862-166.878,166.879    S163.983,438.516,256,438.516c86.956,0,158.593-66.858,166.209-151.866h43.6C458.087,395.652,366.934,481.978,256,481.978z" data-original="#000000" class="active-path" data-old_color="#000000" fill="#03153E"/>
	</g>
</g></g> </svg>
